<svg width="21" height="21" viewBox="0 0 21 21" fill="none" xmlns="http://www.w3.org/2000/svg">
<path d="M5.73796 15.2742C5.73796 15.7326 6.09517 16.1076 6.53175 16.1076H7.32554V19.0243C7.32554 19.716 7.85738 20.2743 8.51623 20.2743C9.17507 20.2743 9.70691 19.716 9.70691 19.0243V16.1076H11.2945V19.0243C11.2945 19.716 11.8263 20.2743 12.4852 20.2743C13.144 20.2743 13.6759 19.716 13.6759 19.0243V16.1076H14.4697C14.9062 16.1076 15.2634 15.7326 15.2634 15.2742V6.94077H5.73796V15.2742ZM3.75349 6.94077C3.09464 6.94077 2.56281 7.49911 2.56281 8.19079V14.0242C2.56281 14.7159 3.09464 15.2742 3.75349 15.2742C4.41234 15.2742 4.94417 14.7159 4.94417 14.0242V8.19079C4.94417 7.49911 4.41234 6.94077 3.75349 6.94077ZM17.2479 6.94077C16.5891 6.94077 16.0572 7.49911 16.0572 8.19079V14.0242C16.0572 14.7159 16.5891 15.2742 17.2479 15.2742C17.9068 15.2742 18.4386 14.7159 18.4386 14.0242V8.19079C18.4386 7.49911 17.9068 6.94077 17.2479 6.94077ZM13.3028 2.07402L14.3347 0.990665C14.4935 0.823996 14.4935 0.565658 14.3347 0.398989C14.1759 0.232319 13.9299 0.232319 13.7711 0.398989L12.5963 1.63234C11.9692 1.299 11.2548 1.10733 10.5007 1.10733C9.73866 1.10733 9.02425 1.299 8.38922 1.63234L7.20647 0.398989C7.04772 0.232319 6.80164 0.232319 6.64288 0.398989C6.48413 0.565658 6.48413 0.823996 6.64288 0.990665L7.68275 2.08235C6.50794 2.9907 5.73796 4.44906 5.73796 6.10742H15.2634C15.2634 4.44906 14.4935 2.98237 13.3028 2.07402ZM8.91312 4.44072H8.11933V3.60738H8.91312V4.44072ZM12.8821 4.44072H12.0883V3.60738H12.8821V4.44072Z" fill="white"/>
</svg>
