<svg width="20" height="21" viewBox="0 0 20 21" fill="none" xmlns="http://www.w3.org/2000/svg">
<path d="M4.76256 15.2742C4.76256 15.7326 5.11977 16.1076 5.55635 16.1076H6.35014V19.0243C6.35014 19.716 6.88198 20.2743 7.54082 20.2743C8.19967 20.2743 8.73151 19.716 8.73151 19.0243V16.1076H10.3191V19.0243C10.3191 19.716 10.8509 20.2743 11.5098 20.2743C12.1686 20.2743 12.7005 19.716 12.7005 19.0243V16.1076H13.4942C13.9308 16.1076 14.288 15.7326 14.288 15.2742V6.94077H4.76256V15.2742ZM2.77809 6.94077C2.11924 6.94077 1.5874 7.49911 1.5874 8.19079V14.0242C1.5874 14.7159 2.11924 15.2742 2.77809 15.2742C3.43693 15.2742 3.96877 14.7159 3.96877 14.0242V8.19079C3.96877 7.49911 3.43693 6.94077 2.77809 6.94077ZM16.2725 6.94077C15.6137 6.94077 15.0818 7.49911 15.0818 8.19079V14.0242C15.0818 14.7159 15.6137 15.2742 16.2725 15.2742C16.9314 15.2742 17.4632 14.7159 17.4632 14.0242V8.19079C17.4632 7.49911 16.9314 6.94077 16.2725 6.94077ZM12.3274 2.07402L13.3593 0.990666C13.5181 0.823996 13.5181 0.565658 13.3593 0.398989C13.2005 0.232319 12.9545 0.232319 12.7957 0.398989L11.6209 1.63234C10.9938 1.299 10.2794 1.10733 9.5253 1.10733C8.76326 1.10733 8.04885 1.299 7.41382 1.63234L6.23107 0.398989C6.07231 0.232319 5.82624 0.232319 5.66748 0.398989C5.50872 0.565658 5.50872 0.823996 5.66748 0.990666L6.70735 2.08235C5.53254 2.9907 4.76256 4.44906 4.76256 6.10742H14.288C14.288 4.44906 13.5181 2.98237 12.3274 2.07402V2.07402ZM7.93772 4.44072H7.14393V3.60738H7.93772V4.44072ZM11.9067 4.44072H11.1129V3.60738H11.9067V4.44072Z" fill="#93CB40"/>
</svg>
