<svg width="20" height="21" viewBox="0 0 20 21" fill="none" xmlns="http://www.w3.org/2000/svg">
<g clip-path="url(#clip0)">
<path d="M7.23664 20.8624C4.26004 20.8452 1.79785 14.769 1.79785 11.6745C1.79785 6.61962 5.58984 5.51298 7.05125 5.51298C7.70984 5.51298 8.41309 5.77162 9.03336 6.00048C9.46711 6.16013 9.91571 6.32494 10.1652 6.32494C10.3145 6.32494 10.6664 6.18474 10.9771 6.06173C11.6398 5.79794 12.4643 5.47009 13.4245 5.47009C13.4262 5.47009 13.4285 5.47009 13.4302 5.47009C14.1471 5.47009 16.3209 5.62744 17.6279 7.59009L17.934 8.05013L17.4934 8.38259C16.864 8.85752 15.7155 9.72384 15.7155 11.4399C15.7155 13.4724 17.0162 14.254 17.641 14.6299C17.9168 14.7959 18.2023 14.967 18.2023 15.3412C18.2023 15.5855 16.2523 20.832 13.4204 20.832C12.7275 20.832 12.2377 20.6238 11.8057 20.4401C11.3685 20.2541 10.9914 20.0939 10.3683 20.0939C10.0524 20.0939 9.65301 20.2433 9.23016 20.4018C8.65231 20.6174 7.99824 20.8624 7.25609 20.8624H7.23664Z" fill="#B4B8BD"/>
<path d="M13.7244 0.862366C13.7982 3.52158 11.8964 5.36643 9.99687 5.25073C9.68386 3.12858 11.8962 0.862366 13.7244 0.862366Z" fill="#B4B8BD"/>
</g>
<defs>
<clipPath id="clip0">
<rect width="20" height="20" fill="white" transform="translate(0 0.862366)"/>
</clipPath>
</defs>
</svg>
