<svg width="21" height="21" viewBox="0 0 21 21" fill="none" xmlns="http://www.w3.org/2000/svg">
<g clip-path="url(#clip0)">
<path d="M8.00227 20.8624C5.02566 20.8452 2.56348 14.769 2.56348 11.6745C2.56348 6.61962 6.35547 5.51298 7.81688 5.51298C8.47547 5.51298 9.17871 5.77162 9.79899 6.00048C10.2327 6.16013 10.6813 6.32494 10.9308 6.32494C11.0802 6.32494 11.4321 6.18474 11.7428 6.06173C12.4054 5.79794 13.2299 5.47009 14.1901 5.47009C14.1918 5.47009 14.1941 5.47009 14.1958 5.47009C14.9127 5.47009 17.0866 5.62744 18.3935 7.59009L18.6996 8.05013L18.259 8.38259C17.6296 8.85752 16.4812 9.72384 16.4812 11.4399C16.4812 13.4724 17.7818 14.254 18.4066 14.6299C18.6825 14.7959 18.968 14.967 18.968 15.3412C18.968 15.5855 17.0179 20.832 14.1861 20.832C13.4931 20.832 13.0033 20.6238 12.5713 20.4401C12.1341 20.2541 11.757 20.0939 11.1339 20.0939C10.818 20.0939 10.4186 20.2433 9.99578 20.4018C9.41793 20.6174 8.76387 20.8624 8.02172 20.8624H8.00227Z" fill="white"/>
<path d="M14.49 0.862366C14.5638 3.52158 12.662 5.36643 10.7625 5.25073C10.4495 3.12858 12.6618 0.862366 14.49 0.862366Z" fill="white"/>
</g>
<defs>
<clipPath id="clip0">
<rect width="20" height="20" fill="white" transform="translate(0.765747 0.862366)"/>
</clipPath>
</defs>
</svg>
